<?xml version="1.0" encoding="UTF-8" standalone="no"?> <svg id="flat_gradient" data-name="flat gradient" xmlns="http://www.w3.org/2000/svg" xmlns:xlink="http://www.w3.org/1999/xlink" viewBox="0 0 64 64"><defs><style>.cls-1{fill:url(#linear-gradient);}</style><linearGradient id="linear-gradient" x1="5.24268" y1="32" x2="58.75732" y2="32" gradientUnits="userSpaceOnUse"><stop offset="0" stop-color="#0cd386"/><stop offset="0.15659" stop-color="#17bc92"/><stop offset="0.29396" stop-color="#20a69f"/><stop offset="0.55769" stop-color="#347cb6"/><stop offset="1" stop-color="#5431e1"/></linearGradient></defs><path class="cls-1" d="M12.15612,41.968V55.22461c0,.62108-1.01817,1.32362-2.464,1.32362H7.7067c-1.456,0-2.464-.70254-2.464-1.32362V41.968c0-.62107,1.008-1.31343,2.464-1.31343H9.69216C11.138,40.65454,12.15612,41.3469,12.15612,41.968Zm46.23526,3.03414a2.08407,2.08407,0,0,0-2.70832-.4887l-9.25522,5.73232a7.0351,7.0351,0,0,1-4.368,1.008c-.62881-.03587-2.20313-.31-2.84067-.42764a3.46809,3.46809,0,0,1-1.4051.99782.64343.64343,0,0,1-.23422.03057l-14.23406-1.3847a.5118.5118,0,0,1,.10186-1.01817l14.11188,1.3847a2.17,2.17,0,0,0,1.35412-2.09744,2.25046,2.25046,0,0,0-2.00577-2.1382c-2.75927-.42762-7.15779-.88581-9.52-1.10978a8.225,8.225,0,0,1-2.96286-.85529L21.38078,43.088c-2.13434-1.28708-5.81369-.86232-8.2066-.92657l.00011,13.0428L23.44764,59.226a11.23054,11.23054,0,0,0,5.68143.66184l14.4886-1.98545a8.39113,8.39113,0,0,0,4.28653-1.89385l10.27341-8.81736A1.52768,1.52768,0,0,0,58.39138,45.00211ZM21.7066,38.03783V13.59146h9.357v6.89306a.50414.50414,0,0,0,.50909.50908h6.23122a.50418.50418,0,0,0,.50909-.50908V13.59146h7.87046l.46838,0c.00362.74482-.005,24.21777,0,24.95549H22.21569A.50415.50415,0,0,1,21.7066,38.03783ZM26.34947,36.144h4.20507a.51061.51061,0,0,0,.50908-.50909V33.38477a.50414.50414,0,0,0-.50908-.50909H26.34947a.50411.50411,0,0,0-.50909.50909V35.635A.51057.51057,0,0,0,26.34947,36.144Zm-2.10763-8.71557h1.59854v3.38029a.50411.50411,0,0,0,.50909.50908h4.20507a.50414.50414,0,0,0,.50908-.50908V27.42847h1.59854a.52106.52106,0,0,0,.45813-.28512.49777.49777,0,0,0-.07122-.5396L28.844,21.411a.52531.52531,0,0,0-.784,0l-4.21526,5.19272A.51127.51127,0,0,0,24.24184,27.42847Zm5.80361,6.46538H26.85856v1.232h3.18689Zm-3.18689-6.97447v3.38029h3.18689V26.91938c.00777-.74414,1.09276-.45663,1.54759-.5091l-3.14613-3.86909-3.136,3.86911C25.76924,26.4617,26.84437,26.17757,26.85856,26.91938Zm4.49012-14.3461,6.82178-7.55483.91638-1.01818h-9.072a.56426.56426,0,0,0-.3869.16289l-7.63631,8.41012C22.66431,12.56147,30.44484,12.5818,31.34868,12.57328Zm.73312.71274v6.68941h5.213v-6.384c.01388-.23539-.06292-.66453.13237-.8451l.15269-.17308c.50434-.55833,7.50342-8.30816,7.73816-8.573h-4.8669C39.38876,5.18408,33.18074,12.06283,32.0818,13.286Zm14.57007-.71274h.42761l.59056-.68216,6.02757-6.87267.88581-1.01818H46.69257c-.22624.26155-7.2408,8.01782-7.73809,8.573Zm1.7818,0-.76363.86543V38.24148l7.6465-8.42032a.48882.48882,0,0,0,.15269-.35634V4.53987L54.45105,5.7108Z"/></svg>