<?xml version="1.0" encoding="utf-8"?>
<!-- Generator: Adobe Illustrator 26.0.2, SVG Export Plug-In . SVG Version: 6.00 Build 0)  -->
<svg version="1.1" id="Layer_3" xmlns="http://www.w3.org/2000/svg" xmlns:xlink="http://www.w3.org/1999/xlink" x="0px" y="0px"
	 viewBox="0 0 64 64" style="enable-background:new 0 0 64 64;" xml:space="preserve">
<g>
	<circle style="fill:#3079E6;" cx="30" cy="30" r="28"/>
	<circle style="fill:#E3E8F6;" cx="30" cy="30" r="24"/>
	<ellipse style="fill:#F8F7FE;" cx="33" cy="30" rx="21" ry="23.807"/>
	<circle style="fill:#AA2B24;" cx="49" cy="49" r="13"/>
	<ellipse style="fill:#D24034;" cx="51" cy="49" rx="11" ry="12.831"/>
	<path style="fill:#73A4EA;" d="M31,6.025C30.668,6.012,30.335,6,30,6s-0.668,0.012-1,0.025V10h2V6.025z"/>
	<path style="fill:#73A4EA;" d="M29,53.975C29.332,53.988,29.665,54,30,54s0.668-0.012,1-0.025V50h-2V53.975z"/>
	<path style="fill:#73A4EA;" d="M6.025,31H10v-2H6.025C6.012,29.332,6,29.665,6,30S6.012,30.668,6.025,31z"/>
	<path style="fill:#73A4EA;" d="M50,31h3.975C53.988,30.668,54,30.335,54,30s-0.012-0.668-0.025-1H50V31z"/>
	<path style="fill:#73A4EA;" d="M11.4,20.8l1.2-1.6l-2.823-2.117c-0.361,0.564-0.701,1.144-1.015,1.739L11.4,20.8z"/>
	<path style="fill:#73A4EA;" d="M19.2,12.6l1.6-1.2l-1.978-2.637c-0.595,0.314-1.174,0.653-1.739,1.015L19.2,12.6z"/>
	<path style="fill:#73A4EA;" d="M40.097,8.228l-1.955,3.258l1.715,1.029l2.02-3.366C41.298,8.818,40.705,8.51,40.097,8.228z"/>
	<path style="fill:#73A4EA;" d="M46.485,19.143l1.029,1.715l3.645-2.188c-0.316-0.589-0.659-1.161-1.022-1.719L46.485,19.143z"/>
	<path style="fill:#73A4EA;" d="M8.763,41.178c0.314,0.595,0.653,1.174,1.015,1.739L12.6,40.8l-1.2-1.6L8.763,41.178z"/>
	<path style="fill:#73A4EA;" d="M17.082,50.222c0.564,0.361,1.144,0.701,1.739,1.015L20.8,48.6l-1.6-1.2L17.082,50.222z"/>
	<g>
		<rect x="33" y="29" style="fill:#73A4EA;" width="3" height="2"/>
	</g>
	<g>
		<rect x="38" y="29" style="fill:#73A4EA;" width="2" height="2"/>
	</g>
	<g>
		<rect x="42" y="29" style="fill:#73A4EA;" width="2" height="2"/>
	</g>
	<g>
		<rect x="46" y="29" style="fill:#73A4EA;" width="2" height="2"/>
	</g>
	<circle style="fill:#3079E6;" cx="30" cy="30" r="4"/>
	<path style="fill:#2763BB;" d="M26.108,30.892l-6.487,6.487C19.224,37.776,19,38.316,19,38.879C19,40.05,19.95,41,21.121,41
		c0.563,0,1.102-0.224,1.5-0.621l6.487-6.487C27.617,33.551,26.449,32.383,26.108,30.892z"/>
	<path style="fill:#3079E6;" d="M22.621,40.379l6.487-6.487c-0.745-0.17-1.41-0.548-1.931-1.069l-5.663,5.663
		c-0.398,0.398-0.621,0.937-0.621,1.5c0,0.368,0.102,0.708,0.267,1.01C21.708,40.987,22.232,40.768,22.621,40.379z"/>
	<path style="fill:#2763BB;" d="M30,26c0.732,0,1.41,0.211,2,0.555V15c0-1.105-0.895-2-2-2s-2,0.895-2,2v11.555
		C28.59,26.211,29.268,26,30,26z"/>
	<path style="fill:#3079E6;" d="M32,15c0-0.738-0.405-1.376-1-1.723c-0.595,0.346-1,0.984-1,1.723v11c0.732,0,1.41,0.211,2,0.555V15
		z"/>
	<g>
		<rect x="29" y="29" style="fill:#73A4EA;" width="2" height="2"/>
	</g>
	<g>
		<path style="fill:#FFFFFF;" d="M49,58c-4.962,0-9-4.037-9-9c0-3.687,2.208-6.962,5.625-8.345l0.75,1.854
			C43.717,43.585,42,46.133,42,49c0,3.859,3.14,7,7,7s7-3.141,7-7c0-2.867-1.717-5.415-4.375-6.491l0.75-1.854
			C55.792,42.038,58,45.313,58,49C58,53.963,53.962,58,49,58z"/>
	</g>
	<g>
		<rect x="48" y="39" style="fill:#FFFFFF;" width="2" height="5"/>
	</g>
</g>
</svg>
